<?xml version="1.0" encoding="utf-8"?>
<!-- Generator: Adobe Illustrator 20.1.0, SVG Export Plug-In . SVG Version: 6.00 Build 0)  -->
<svg version="1.1" id="レイヤー_1" xmlns="http://www.w3.org/2000/svg" xmlns:xlink="http://www.w3.org/1999/xlink" x="0px"
	 y="0px" viewBox="0 0 256 256" style="enable-background:new 0 0 256 256;" xml:space="preserve">
<style type="text/css">
	.st0{fill:#233172;}
	.st1{fill:#DD0B0B;}
</style>
<path class="st0" d="M86.9,50.5l-28.5-3.1l16.1,22.2c0,0-5.2,39.4-1.8,56.7c3.4,17.3,7.6,27.2,18.3,32.2
	c11.2,5.2,14.9,9.6,11.6,16.1c-1.9,3.9-26.1-2-26.1-2s26.5,12.9,29.7,9.8c3.2-3,3.2-15.9,3.2-15.9H125c0,0,6.3,17.2,3,23.3
	c-3.3,6-12.1,12.7-12.1,12.7s7.4,3.1,12.1,0c4.7-3.1,3.8-5.1,5.5-9.1c1.7-4,0-26.4,0-26.4s2.7-0.6,13-2.1
	c16.7-2.4,34.8-9.3,41.6-16.1c17.3-17.3,20.1-35.7,20.1-35.7s-9.3,13.5-17.7,15.8c-8.4,2.3-12-3.4-12-3.4s11.1-1.4,16.5-10
	c4.8-7.8,7.8-23.7,7.8-23.7s-11.4,16.5-15.4,17.7c-4,1.2-11.2,3.2-11.2,3.2s11.2-10.5,13.7-15.7c3.2-6.8,6.4-20.9,6.4-20.9
	s-18.5,16-26.9,16.9c-6.3,0.7-17.3,4.4-29.1,0.5c-10.9-3.6-0.2-16.1-6.3-29.1c-5.2-11.2-13-18.7-20.8-20.5
	C99.4,40.8,91.3,46.2,86.9,50.5z"/>
<polygon class="st1" points="97,85.6 88,91.8 88,90 81,90 81,91.7 71,84.3 71,102.8 81,95.4 81,98 88,98 88,94.9 97,104 "/>
</svg>
